HIERARCHY
ROOT Hips
{
 OFFSET 0.000000 0.000000 0.000000
 CHANNELS 6 Xposition Yposition Zposition Yrotation Xrotation Zrotation
 JOINT Chest
 {
  OFFSET 0.000000 10.388337 0.005184
  CHANNELS 3 Yrotation Xrotation Zrotation
  JOINT Chest2
  {
   OFFSET 0.000000 10.458247 -0.010579
   CHANNELS 3 Yrotation Xrotation Zrotation
   JOINT Chest3
   {
    OFFSET 0.000000 10.415828 0.000000
    CHANNELS 3 Yrotation Xrotation Zrotation
    JOINT Chest4
    {
     OFFSET 0.000000 10.405206 0.000000
     CHANNELS 3 Yrotation Xrotation Zrotation
     JOINT Neck
     {
      OFFSET 0.000000 15.720090 0.000000
      CHANNELS 3 Yrotation Xrotation Zrotation
      JOINT Head
      {
       OFFSET 0.000000 9.732643 -0.022378
       CHANNELS 3 Yrotation Xrotation Zrotation
       End Site
       {
        OFFSET 0.000000 18.603619 -0.011814
       }
      }
     }
     JOINT RightCollar
     {
      OFFSET -3.167735 10.388953 0.000000
      CHANNELS 3 Yrotation Xrotation Zrotation
      JOINT RightShoulder
      {
       OFFSET -14.584825 0.000000 0.000000
       CHANNELS 3 Yrotation Xrotation Zrotation
       JOINT RightElbow
       {
        OFFSET 0.000000 -31.921689 0.000000
        CHANNELS 3 Yrotation Xrotation Zrotation
        JOINT RightWrist
        {
         OFFSET 0.000000 -25.835217 0.000000
         CHANNELS 3 Yrotation Xrotation Zrotation
         End Site
         {
          OFFSET 0.000000 -19.128920 0.000000
         }
        }
       }
      }
     }
     JOINT LeftCollar
     {
      OFFSET 3.167735 10.388953 0.000000
      CHANNELS 3 Yrotation Xrotation Zrotation
      JOINT LeftShoulder
      {
       OFFSET 14.584825 0.000000 0.000000
       CHANNELS 3 Yrotation Xrotation Zrotation
       JOINT LeftElbow
       {
        OFFSET 0.000000 -31.921689 0.000000
        CHANNELS 3 Yrotation Xrotation Zrotation
        JOINT LeftWrist
        {
         OFFSET 0.000000 -25.835217 0.000000
         CHANNELS 3 Yrotation Xrotation Zrotation
         End Site
         {
          OFFSET 0.000000 -19.128920 0.000000
         }
        }
       }
      }
     }
    }
   }
  }
 }
 JOINT RightHip
 {
  OFFSET -8.403278 -0.025659 -0.002592
  CHANNELS 3 Yrotation Xrotation Zrotation
  JOINT RightKnee
  {
   OFFSET 0.000000 -44.040977 0.002477
   CHANNELS 3 Yrotation Xrotation Zrotation
   JOINT RightAnkle
   {
    OFFSET 0.000000 -42.951162 0.004189
    CHANNELS 3 Yrotation Xrotation Zrotation
    JOINT RightToe
    {
     OFFSET 0.000000 -5.494238 12.197485
     CHANNELS 3 Yrotation Xrotation Zrotation
     End Site
     {
      OFFSET 0.000000 -1.538716 6.371628
     }
    }
   }
  }
 }
 JOINT LeftHip
 {
  OFFSET 8.403278 -0.025659 -0.002592
  CHANNELS 3 Yrotation Xrotation Zrotation
  JOINT LeftKnee
  {
   OFFSET 0.000000 -44.040977 0.002477
   CHANNELS 3 Yrotation Xrotation Zrotation
   JOINT LeftAnkle
   {
    OFFSET 0.000000 -42.951162 0.004189
    CHANNELS 3 Yrotation Xrotation Zrotation
    JOINT LeftToe
    {
     OFFSET 0.000000 -5.494238 12.197485
     CHANNELS 3 Yrotation Xrotation Zrotation
     End Site
     {
      OFFSET 0.000000 -1.538716 6.371628
     }
    }
   }
  }
 }
}
MOTION
Frames: 5
Frame Time: 0.008333
-28.542016 93.069087 139.929130 137.867396 -5.569798 0.256841 4.796614 2.238295 -2.708797 0.157901 0.061142 -0.101699 0.279071 0.108280 -0.179674 4.378978 1.815783 -2.781295 -13.797472 18.765542 9.683905 -27.985886 2.663064 21.619677 2.206389 1.436233 -1.006747 18.308991 -5.352201 -30.955699 29.743134 -26.640919 15.398644 -6.786063 -2.789051 19.082177 3.239519 1.593437 7.300774 -13.948483 4.452789 19.215327 -24.006704 -8.965198 -7.575301 -1.732376 -4.553054 0.553854 1.318385 11.636586 1.382988 -7.183429 9.787642 0.807981 -2.919097 -12.076257 0.692347 0.019097 0.563690 -0.098518 2.164758 -6.786621 4.866305 17.641782 13.818562 4.355021 -2.056512 2.545755 -4.429404 -0.341055 -0.064560 -0.113868
-28.548590 93.068066 140.146515 137.258961 -5.742493 0.322143 4.783765 2.368473 -2.603596 0.153412 0.062308 -0.098066 0.271243 0.110374 -0.173321 4.312074 1.868627 -2.716411 -13.893590 18.822638 9.688367 -28.146713 2.795605 21.636018 2.248274 1.509001 -0.981935 18.331869 -5.425086 -30.808622 29.868880 -26.664445 15.229641 -6.691038 -2.691003 19.182662 3.233917 1.664308 7.226862 -13.832002 4.409101 19.135501 -23.945404 -9.003011 -7.543204 -1.816278 -4.491843 0.542474 1.679293 11.541422 1.385659 -7.079160 10.019155 0.846984 -2.796668 -12.144619 0.537568 0.021362 0.598645 -0.069671 2.571276 -6.589670 4.925563 17.750856 13.681534 4.411957 -2.012422 2.731938 -4.582432 -0.393921 -0.132327 -0.096035
-28.559552 93.063438 140.366116 136.694990 -5.892851 0.388787 4.741215 2.480303 -2.503101 0.148636 0.063629 -0.094627 0.262903 0.112743 -0.167306 4.235974 1.927974 -2.655960 -13.974882 18.876371 9.689146 -28.280683 2.916618 21.642946 2.297321 1.573091 -0.953382 18.348859 -5.503369 -30.670960 30.010137 -26.675534 15.045461 -6.600172 -2.599514 19.295823 3.235207 1.732109 7.158696 -13.705813 4.366037 19.046049 -23.898884 -9.051839 -7.514492 -1.878097 -4.475952 0.592639 1.975143 11.431031 1.383924 -6.937233 10.240984 0.885468 -2.695376 -12.211449 0.373258 0.022608 0.633346 -0.037281 2.945919 -6.432707 4.988237 17.855879 13.576043 4.466364 -2.007132 2.889665 -4.755597 -0.417265 -0.182522 -0.067530
-28.567676 93.056415 140.582101 136.138646 -6.071645 0.451302 4.707725 2.621887 -2.396911 0.143740 0.065177 -0.091347 0.254343 0.115518 -0.161568 4.153310 1.995458 -2.597862 -14.042346 18.925194 9.686354 -28.390008 3.023613 21.641364 2.353191 1.630007 -0.917497 18.338554 -5.588351 -30.541264 30.173491 -26.679254 14.842041 -6.484666 -2.515232 19.415885 3.237837 1.792989 7.092955 -13.568490 4.319318 18.953808 -23.869486 -9.098533 -7.499426 -1.895305 -4.510255 0.700537 2.251623 11.355187 1.391134 -6.766249 10.459769 0.921897 -2.613540 -12.289077 0.201214 0.023059 0.674252 -0.003093 3.311128 -6.265120 5.065575 17.954841 13.504489 4.516749 -1.976964 3.060636 -4.922439 -0.461583 -0.253867 -0.051354
-28.576429 93.046922 140.797454 135.608157 -6.254585 0.507107 4.666511 2.768746 -2.290283 0.138808 0.066954 -0.088099 0.245710 0.118699 -0.155882 4.066126 2.071198 -2.538302 -14.098269 18.966901 9.679846 -28.479290 3.113226 21.632178 2.412105 1.682397 -0.877855 18.296639 -5.680288 -30.414083 30.362882 -26.684251 14.623397 -6.334072 -2.428497 19.527170 3.235958 1.845155 7.024917 -13.429829 4.261920 18.870900 -23.849228 -9.131976 -7.511331 -1.864148 -4.582703 0.842408 2.499602 11.288969 1.405168 -6.581108 10.673276 0.961750 -2.542701 -12.365218 0.016920 0.023461 0.712230 0.033481 3.639274 -6.111224 5.157603 18.049331 13.469182 4.562189 -1.934662 3.219708 -5.092701 -0.506023 -0.324794 -0.038244
